<svg id="Layer_1" enable-background="new 0 0 511.333 511.333" height="512" viewBox="0 0 511.333 511.333" width="512" xmlns="http://www.w3.org/2000/svg"><path d="m488.555 88.012c-2.164-5.528-6.566-9.882-12.118-11.984-79.893-30.255-361.623-30.265-441.542 0-5.551 2.102-9.954 6.456-12.118 11.984-.929 2.376-22.777 59.435-22.777 167.655s21.848 165.278 22.778 167.655c2.164 5.528 6.566 9.882 12.118 11.984 79.893 30.255 361.623 30.265 441.542 0 5.551-2.102 9.954-6.456 12.118-11.984.93-2.376 22.778-59.436 22.778-167.655s-21.849-165.279-22.779-167.655z" fill="#ffebd2"/><path d="m483.46 400.441-213.329-202.669c-8.105-7.701-20.824-7.701-28.93 0l-213.328 202.669c-11.209 10.65-7.431 29.39 7.027 34.864 79.762 30.195 361.47 30.309 441.533 0 14.46-5.474 18.235-24.215 7.027-34.864z" fill="#fff3e4"/><path d="m476.433 76.027c-79.762-30.195-361.47-30.309-441.533 0-14.46 5.475-18.235 24.215-7.027 34.864l213.329 202.669c8.105 7.701 20.824 7.701 28.93 0l213.328-202.668c11.209-10.65 7.431-29.39-7.027-34.865z" fill="#ffcdba"/></svg>