<svg id="Layer_1" enable-background="new 0 0 511.333 511.333" height="512" viewBox="0 0 511.333 511.333" width="512" xmlns="http://www.w3.org/2000/svg"><path d="m405 256c-58.632 0-106.333 47.701-106.333 106.333v64c0 11.598 9.402 21 21 21h170.667c11.598 0 21-9.402 21-21v-64c-.001-58.632-47.702-106.333-106.334-106.333z" fill="#ffcdba"/><path d="m191.667 234.667c-105.686 0-191.667 85.981-191.667 191.666 0 11.598 9.402 21 21 21h341.333c11.598 0 21-9.402 21-21 0-105.685-85.981-191.666-191.666-191.666z" fill="#ffebd2"/><g fill="#fff3e4"><path d="m191.667 64c-58.632 0-106.333 47.701-106.333 106.333s47.701 106.333 106.333 106.333 106.333-47.701 106.333-106.333-47.701-106.333-106.333-106.333z"/><path d="m405 170.667c-35.106 0-63.667 28.561-63.667 63.667s28.561 63.666 63.667 63.666 63.667-28.561 63.667-63.667-28.561-63.666-63.667-63.666z"/></g></svg>