<svg id="Layer_1" enable-background="new 0 0 511.449 511.449" height="512" viewBox="0 0 511.449 511.449" width="512" xmlns="http://www.w3.org/2000/svg"><path d="m436.508 74.941c-99.913-99.913-261.639-99.928-361.566 0-99.914 99.912-99.93 261.64 0 361.567 99.913 99.913 261.639 99.928 361.566 0 99.913-99.912 99.929-261.64 0-361.567z" fill="#ffebd2"/><path d="m384.025 178.269c-.687-27.894-23.574-50.378-51.629-50.378-28.487 0-51.663 23.176-51.663 51.663 0 28.663 23.567 52.237 52.727 51.635-16.259 47.888-54.215 85.844-102.103 102.103.6-29.104-22.909-52.727-51.636-52.727-28.487 0-51.663 23.176-51.663 51.663 0 29.106 24.067 51.663 51.024 51.663 118.023 0 208.154-100.079 204.943-205.622z" fill="#7be3d4"/></svg>